<svg xmlns="http://www.w3.org/2000/svg" xmlns:xlink="http://www.w3.org/1999/xlink" xmlns:inkscape="http://www.inkscape.org/namespaces/inkscape" version="1.1" width="1145.2" height="595.276" viewBox="0 0 1145.2 595.276">
<defs>
<clipPath id="clip_0">
<path transform="matrix(1,0,0,-1,0,595.276)" d="M0 595.276H1145.197V0H0Z"/>
</clipPath>
</defs>
<g inkscape:groupmode="layer" inkscape:label="&lt;Layer&gt;">
<path transform="matrix(1,0,0,-1,695.479,308.2898)" d="M0 0H-42.712V-13.949H6.951Z" fill="#fab03b"/>
<g clip-path="url(#clip_0)">
<path transform="matrix(1,0,0,-1,42.3121,206.76761)" d="M0 0C-6.743-10.408 41.711-29.023 40.038-55.328 38.523-79.49-22.11-111.389-19.394-126.816-16.413-143.813 117.398-61.185 115.047-33.103 114.001-20.762 13.644 17.416 0 0" fill="#4578a8"/>
<path transform="matrix(1,0,0,-1,160.7548,131.88031)" d="M0 0C-8.938 .784-4.441-36.605-21.848-44.452-37.841-51.668-78.821-23.638-87.761-30.591-97.64-38.281 .627-96.015 17.823-84.98 25.353-80.116 15.786-2.876 0 0" fill="#4d4f4f"/>
<path transform="matrix(1,0,0,-1,250.9206,184.90729)" d="M0 0C-2.197 5.752-23.888-8.316-33.976 .052-43.226 7.792-38.316 41.524-45.316 44.919-53.053 48.687-59.013-29.338-46.991-36.608-41.763-39.849 3.031-10.616 0 0" fill="#4d4f4f"/>
<path transform="matrix(1,0,0,-1,192.2217,404.0268)" d="M0 0C-13.07-5.333-23.678 52.871-53.525 56.531-80.913 59.879-129.367-1.358-146.04 4.968-164.492 11.924-43.801 144.442-12.858 135.916 .732 132.151 22.425 11.664 0 0" fill="#fab03b"/>
<path transform="matrix(1,0,0,-1,174.5538,230.0383)" d="M0 0C6.064 5.647 15.524 5.283 21.169-.786 26.814-6.798 26.449-16.266 20.437-21.913 14.376-27.56 4.916-27.248-.729-21.181-6.376-15.112-6.012-5.647 0 0" fill="#fab03b"/>
<path transform="matrix(1,0,0,-1,991.0623,267.4306)" d="M0 0H-7.737L-47.775-78.756H-34.76L-24.567-58.728H16.987L27.181-78.756H40.35ZM-19.289-48.322-3.817-18.095 11.499-48.322Z" fill="#4f4d4d"/>
<path transform="matrix(1,0,0,-1,264.6148,319.9348)" d="M0 0C7.318-5.647 14.845-9.937 22.582-12.813 30.319-15.741 37.949-17.154 45.528-17.154 50.442-17.154 54.831-16.63 58.753-15.584 62.62-14.485 65.911-12.97 68.63-11.035 71.348-9.1 73.438-6.801 74.953-4.237 76.469-1.673 77.255 1.148 77.255 4.182 77.255 8.838 75.268 12.865 71.296 16.263 67.324 19.663 61.364 21.651 53.42 22.277 49.029 22.694 44.899 23.009 41.084 23.219 37.217 23.481 33.557 23.795 30.057 24.212 26.502 24.579 23.209 25.101 20.123 25.783 17.042 26.462 14.166 27.455 11.552 28.709 1.83 33.365-2.978 40.37-2.978 49.68-2.978 53.602-2.09 57.265-.26 60.663 1.568 64.063 4.182 67.044 7.685 69.606 11.135 72.167 15.264 74.207 20.123 75.67 24.986 77.083 30.421 77.817 36.431 77.817 45.159 77.817 53.577 76.404 61.731 73.58 69.938 70.757 77.725 66.625 85.147 61.187L77.777 50.621C65.074 60.82 51.38 65.946 36.643 65.946 28.591 65.946 22.163 64.375 17.406 61.289 12.595 58.206 10.194 54.546 10.194 50.257 10.194 46.752 11.866 43.718 15.104 41.207 17.249 39.534 19.758 38.331 22.684 37.599 25.56 36.868 28.801 36.291 32.304 35.874 35.804 35.507 39.671 35.247 43.801 35.038 47.985 34.88 52.374 34.516 57.025 33.991 67.741 32.738 76.002 29.338 81.854 23.795 87.709 18.25 90.637 11.609 90.637 3.765 90.637-.627 89.644-4.811 87.604-8.783 85.616-12.76 82.69-16.213 78.928-19.139 75.166-22.123 70.457-24.474 64.867-26.249 59.272-27.98 52.896-28.868 45.683-28.868 35.649-28.868 26.239-27.455 17.561-24.527 8.885-21.651 .574-17.099-7.318-10.93ZM131.771 41.574H98.581V52.504H177.09V41.574H143.845V-26.249H131.771ZM189.528 52.504H263.176V41.207H201.604V21.336H242.01V10.039H201.604V-14.905H266.576V-26.249H189.528ZM341.687 19.454C345.971 19.454 349.214 20.447 351.409 22.382 353.606 24.265 354.702 26.983 354.702 30.434 354.702 33.782 353.656 36.346 351.514 38.281 349.369 40.216 346.286 41.207 342.261 41.207H296.578V19.454ZM296.578-26.249H284.504V52.504H341.687C349.891 52.504 356.217 50.621 360.659 46.752 365.155 42.934 367.352 37.547 367.352 30.591 367.352 24.317 365.26 18.982 360.923 14.643 356.637 10.301 350.677 8.159 342.94 8.159H296.578Z" fill="#4f4d4d"/>
<path transform="matrix(1,0,0,-1,686.3784,234.06562)" d="M0 0 55.929-112.121H42.13L28.382-84.72 0-28.971-27.912-84.72-41.294-112.121H-54.883Z" fill="#4f4d4d"/>
<path transform="matrix(1,0,0,-1,769.0211,346.18519)" d="M0 0H-12.071V78.598H0V48.005H55.72V78.598H67.793V0H55.72V36.658H0Z" fill="#4f4d4d"/>
<path transform="matrix(1,0,0,-1,855.4742,267.4306)" d="M0 0H73.648V-11.297H12.074V-31.168H52.476V-42.465H12.074V-67.409H77.046V-78.756H0Z" fill="#4f4d4d"/>
<path transform="matrix(1,0,0,-1,1118.1813,291.3303)" d="M0 0C-1.935 4.863-4.809 9.048-8.518 12.603-12.228 16.108-16.725 18.879-22.005 20.867-27.283 22.906-33.242 23.9-39.936 23.9H-74.849V-54.856H-39.936C-33.14-54.856-27.076-53.862-21.693-51.93-16.36-49.942-11.866-47.273-8.206-43.771-4.549-40.32-1.777-36.186 .105-31.43 1.987-26.616 2.926-21.388 2.926-15.741 2.926-10.091 1.935-4.811 0 0M-17.406-35.664C-22.475-40.895-30.002-43.509-39.828-43.509H-62.775V12.603H-39.828C-35.177 12.603-30.943 11.871-27.231 10.408-23.521 8.943-20.385 6.956-17.771 4.447-15.209 1.935-13.172-.991-11.812-4.392-10.401-7.792-9.722-11.557-9.722-15.584-9.722-23.74-12.283-30.434-17.406-35.664" fill="#4f4d4d"/>
</g>
</g>
</svg>
